<?xml version="1.0" encoding="utf-8"?>
<!-- Generator: Adobe Illustrator 15.0.0, SVG Export Plug-In . SVG Version: 6.00 Build 0)  -->
<!DOCTYPE svg PUBLIC "-//W3C//DTD SVG 1.1//EN" "http://www.w3.org/Graphics/SVG/1.1/DTD/svg11.dtd">
<svg version="1.1" id="Layer_1" xmlns="http://www.w3.org/2000/svg" xmlns:xlink="http://www.w3.org/1999/xlink" x="0px" y="0px"
	 width="20px" height="15px" viewBox="0 0 20 15" enable-background="new 0 0 20 15" xml:space="preserve">
<path fill="#FFFFFF" d="M16.299,0H3.704C3.04,0,2.5,0.538,2.5,1.202v12.595C2.5,14.463,3.04,15,3.704,15h12.593
	c0.666,0,1.203-0.537,1.203-1.203V1.202C17.5,0.538,16.963,0,16.299,0z M6.826,6.441l0.006,0.007C7.3,5.15,8.541,4.22,10,4.22
	c1.461,0,2.7,0.93,3.167,2.229c0.131,0.353,0.205,0.737,0.205,1.14c0,1.862-1.51,3.372-3.378,3.372c-1.871,0-3.372-1.51-3.372-3.372
	C6.621,7.179,6.694,6.802,6.826,6.441z M15.562,13.836H4.388c-0.398,0-0.722-0.324-0.722-0.723V6.45h1.182
	C4.765,6.821,4.72,7.201,4.72,7.593c0,2.92,2.363,5.282,5.279,5.282c2.918,0,5.276-2.361,5.276-5.282
	c0-0.393-0.049-0.774-0.133-1.144h1.125v6.66l0.014,0.004C16.281,13.512,15.959,13.836,15.562,13.836z M16.535,3.642
	c0,0.396-0.322,0.722-0.721,0.722h-1.799c-0.396,0-0.721-0.324-0.721-0.722V1.845c0-0.4,0.324-0.724,0.721-0.724h1.799
	c0.398,0,0.721,0.324,0.721,0.722V3.642z"/>
</svg>
