<?xml version="1.0" encoding="utf-8"?>
<!-- Generator: Adobe Illustrator 15.0.0, SVG Export Plug-In . SVG Version: 6.00 Build 0)  -->
<!DOCTYPE svg PUBLIC "-//W3C//DTD SVG 1.1//EN" "http://www.w3.org/Graphics/SVG/1.1/DTD/svg11.dtd">
<svg version="1.1" id="Layer_1" xmlns="http://www.w3.org/2000/svg" xmlns:xlink="http://www.w3.org/1999/xlink" x="0px" y="0px"
	 width="20px" height="15px" viewBox="0 0 20 15" enable-background="new 0 0 20 15" xml:space="preserve">
<path fill="#FFFFFF" d="M17.204,3.815c0.007,0.16,0.011,0.32,0.011,0.48c0,4.905-3.73,10.56-10.559,10.56
	c-2.098,0-4.047-0.614-5.689-1.667c0.291,0.033,0.586,0.051,0.887,0.051c1.738,0,3.339-0.591,4.607-1.588
	c-1.625-0.029-2.994-1.104-3.467-2.578c0.227,0.045,0.46,0.067,0.7,0.067c0.337,0,0.665-0.046,0.976-0.13
	C2.973,8.669,1.693,7.169,1.693,5.37V5.325c0.5,0.27,1.07,0.439,1.68,0.459c-1-0.67-1.65-1.81-1.65-3.09c0-0.68,0.181-1.32,0.5-1.87
	c1.83,2.24,4.561,3.72,7.65,3.88c-0.061-0.28-0.1-0.56-0.1-0.85c0-2.05,1.66-3.71,3.709-3.71c1.061,0,2.031,0.45,2.711,1.17
	c0.84-0.17,1.64-0.48,2.35-0.9c-0.279,0.86-0.869,1.59-1.64,2.05c0.75-0.09,1.46-0.29,2.13-0.59c-0.5,0.74-1.13,1.39-1.85,1.92
	L17.204,3.815z"/>
</svg>
